<svg width="800" height="600" xmlns="http://www.w3.org/2000/svg">

 <g>
  <title>Layer 1</title>
  <g>
   <g fill="#000000" transform="translate(0 640) scale(0.1 -0.1)">
    <path fill="#3b82f6" d="m1818.87219,5563.49109l-33,-29l0,-691l0,-690l29,-30l30,-31l146,0l146,0l30,31l29,30l0,295l0,294l138,0l137,0l0,-29c0,-74 120,-460 215,-691c85,-209 205,-425 334,-603c222,-306 281,-435 311,-678c7,-52 14,-287 17,-522l5,-428l-508,357c-280,196 -533,379 -562,407c-31,30 -66,79 -85,117l-32,65l-3,577l-3,578l-114,0l-115,0l0,-567c0,-634 1,-640 68,-767c71,-136 112,-170 806,-660c977,-690 891,-633 1006,-672c43,-15 84,-19 185,-19c221,0 226,2 725,356c291,207 867,613 1010,712c163,113 254,224 307,373l28,79l3,583l3,582l-118,0l-118,0l3,-517c1,-292 -2,-548 -7,-587c-14,-100 -58,-183 -134,-251c-54,-48 -1029,-735 -1044,-735c-10,0 5,873 17,955c28,210 92,358 246,575c223,314 307,460 407,715c87,221 197,593 197,666l0,29l143,0l142,0l-3,-267c-5,-390 -8,-383 215,-383l145,0l29,29l29,29l0,682c0,730 0,723 -49,750c-11,5 -82,10 -158,10c-218,0 -213,9 -213,-380l0,-280l-143,0l-144,0l-14,26c-20,37 -94,92 -143,105c-90,24 -189,-9 -253,-86l-37,-45l-1076,0l-1075,0l-17,29c-22,39 -91,88 -142,102c-89,24 -191,-12 -259,-91l-34,-40l-134,0l-134,0l3,257c4,304 1,336 -38,375l-28,28l-141,0l-141,0l-32,-29zm3267,-876c21,-68 17,-96 -36,-230c-112,-287 -311,-593 -481,-737c-206,-175 -393,-247 -613,-235c-298,16 -563,203 -795,558c-80,123 -209,382 -243,489l-27,85l21,63l21,62l1068,0l1067,0l18,-55z"/>
    <path fill="#3b82f6" d="m3905.87219,4439.49109c-78,-20 -135,-52 -188,-103c-59,-58 -93,-127 -114,-229c-28,-140 10,-260 114,-355c171,-156 402,-156 568,1c74,70 107,139 113,238c15,254 -140,444 -373,457c-38,2 -93,-2 -120,-9z"/>
    <path fill="#3b82f6" d="m1353.87219,5408.49109l-28,-24l-5,-516c-3,-283 -2,-530 2,-548c3,-18 18,-43 33,-55c24,-21 36,-23 149,-23c119,0 123,1 147,26l24,26l3,538l3,538l-27,31l-26,31l-123,0c-117,0 -126,-1 -152,-24z"/>
    <path fill="#3b82f6" d="m6362.87219,5425.49109c-7,-3 -19,-18 -27,-33c-23,-44 -22,-1057 0,-1100c22,-43 42,-50 158,-51c116,-1 155,11 175,56c9,19 12,165 12,551l0,526l-29,29l-29,29l-124,-1c-68,0 -129,-3 -136,-6z"/>
   </g>
  </g>
 </g>
</svg>